{
	"asset":
	{
		"version": "2.0",
		"generator": "Unreal Engine 5.4.0"
	},
	"scene": 0,
	"accessors": [
		{
			"bufferView": 0,
			"count": 65,
			"type": "MAT4",
			"componentType": 5126
		},
		{
			"bufferView": 1,
			"count": 168597,
			"type": "SCALAR",
			"componentType": 5123
		},
		{
			"bufferView": 2,
			"count": 44539,
			"type": "VEC3",
			"componentType": 5126,
			"min": [ -0.653784156, -0.520524919, -0.86152339 ],
			"max": [ 0.653789043, 1.22879517, 0.164238274 ]
		},
		{
			"bufferView": 3,
			"count": 44539,
			"type": "VEC3",
			"componentType": 5126
		},
		{
			"bufferView": 4,
			"count": 44539,
			"type": "VEC4",
			"componentType": 5126
		},
		{
			"bufferView": 5,
			"count": 44539,
			"type": "VEC2",
			"componentType": 5126
		},
		{
			"bufferView": 6,
			"count": 44539,
			"type": "VEC4",
			"componentType": 5121
		},
		{
			"bufferView": 7,
			"count": 44539,
			"type": "VEC4",
			"componentType": 5121,
			"normalized": true
		},
		{
			"bufferView": 8,
			"count": 44539,
			"type": "VEC4",
			"componentType": 5121
		},
		{
			"bufferView": 9,
			"count": 44539,
			"type": "VEC4",
			"componentType": 5121,
			"normalized": true
		}
	],
	"buffers": [
		{
			"uri": "characterTamaki.bin",
			"byteLength": 3191852
		}
	],
	"bufferViews": [
		{
			"buffer": 0,
			"byteLength": 4160
		},
		{
			"buffer": 0,
			"byteLength": 337194,
			"byteOffset": 4160,
			"target": 34963
		},
		{
			"buffer": 0,
			"byteLength": 534468,
			"byteOffset": 341356,
			"target": 34962
		},
		{
			"buffer": 0,
			"byteLength": 534468,
			"byteOffset": 875824,
			"target": 34962
		},
		{
			"buffer": 0,
			"byteLength": 712624,
			"byteOffset": 1410292,
			"target": 34962
		},
		{
			"buffer": 0,
			"byteLength": 356312,
			"byteOffset": 2122916,
			"target": 34962
		},
		{
			"buffer": 0,
			"byteLength": 178156,
			"byteOffset": 2479228,
			"target": 34962
		},
		{
			"buffer": 0,
			"byteLength": 178156,
			"byteOffset": 2657384,
			"target": 34962
		},
		{
			"buffer": 0,
			"byteLength": 178156,
			"byteOffset": 2835540,
			"target": 34962
		},
		{
			"buffer": 0,
			"byteLength": 178156,
			"byteOffset": 3013696,
			"target": 34962
		}
	],
	"images": [
		{
			"uri": "M_NEEEEEW_BaseColor.png"
		}
	],
	"materials": [
		{
			"name": "M_NEEEEEW",
			"pbrMetallicRoughness":
			{
				"baseColorTexture":
				{
					"index": 0
				},
				"metallicFactor": 0,
				"roughnessFactor": 0.498039246
			},
			"doubleSided": true,
			"extensions":
			{
				"KHR_materials_specular":
				{
					"specularFactor": 0.498039246
				}
			}
		}
	],
	"meshes": [
		{
			"name": "Character_Tamaki",
			"primitives": [
				{
					"attributes":
					{
						"POSITION": 2,
						"NORMAL": 3,
						"TANGENT": 4,
						"TEXCOORD_0": 5,
						"JOINTS_0": 6,
						"JOINTS_1": 8,
						"WEIGHTS_0": 7,
						"WEIGHTS_1": 9
					},
					"indices": 1,
					"material": 0
				}
			]
		}
	],
	"nodes": [
		{
			"skin": 0,
			"mesh": 0,
			"children": [ 1 ]
		},
		{
			"name": "Root",
			"translation": [ 0.00246988656, 0.381220996, 0.0044612498 ],
			"children": [ 2 ]
		},
		{
			"name": "Pelvis",
			"translation": [ -0.000482274074, 0.0240196418, 0.00194392016 ],
			"children": [ 3, 4, 5, 56 ]
		},
		{
			"name": "Spine_01",
			"translation": [ -0.000176337009, 0.0497451164, 0.000574426784 ],
			"children": [ 6 ]
		},
		{
			"name": "thigh_l",
			"translation": [ 0.0830518901, -0.0104048299, 0.0102769444 ],
			"rotation": [ -0.710223317, 0.700207055, -0.0241470393, 0.0686282963 ],
			"children": [ 50 ]
		},
		{
			"name": "thigh_r",
			"translation": [ -0.0820873305, -0.0104048299, 0.0102769444 ],
			"rotation": [ 0.0246800594, -0.0691689253, 0.710170865, -0.700188518 ],
			"children": [ 53 ]
		},
		{
			"name": "Spine_02",
			"translation": [ -0.0123371929, 0.117052183, -0.00161324663 ],
			"children": [ 7 ]
		},
		{
			"name": "Spine_03",
			"translation": [ 0.00198938674, 0.110737443, -0.0071807038 ],
			"children": [ 8, 9, 10, 64, 65 ]
		},
		{
			"name": "Neck_01",
			"translation": [ 0.00795765594, 0.208645642, -0.0252992548 ],
			"children": [ 11 ]
		},
		{
			"name": "clavicle_l",
			"translation": [ 0.102223039, 0.111106269, 0.0153637528 ],
			"children": [ 14 ]
		},
		{
			"name": "clavicle_r",
			"translation": [ -0.100706495, 0.11040777, -0.00562711945 ],
			"rotation": [ 1, -0, -0, 6.12323426e-17 ],
			"children": [ 32 ]
		},
		{
			"name": "Head",
			"translation": [ 0.00572732929, 0.0893825591, 0.00741476379 ],
			"children": [ 12, 13 ]
		},
		{
			"name": "ear_L",
			"translation": [ 0.0818078592, 0.161514148, -0.0248693898 ]
		},
		{
			"name": "ear_R",
			"translation": [ -0.0997040644, 0.157780334, -0.0262511801 ]
		},
		{
			"name": "upperarm_l",
			"translation": [ 0.0375455245, 0.0133547895, -0.0297348592 ],
			"children": [ 15 ]
		},
		{
			"name": "lowerarm_l",
			"translation": [ 0.17367819, 0.0162425321, -0.0220882911 ],
			"children": [ 16 ]
		},
		{
			"name": "hand_l",
			"translation": [ 0.187904775, 0.00083954283, 0.0122609092 ],
			"children": [ 17, 18, 19, 20, 21 ]
		},
		{
			"name": "thumb_01_l",
			"translation": [ 0.0335352272, -0.0107686389, 0.0243808217 ],
			"children": [ 22 ]
		},
		{
			"name": "index_01_l",
			"translation": [ 0.0869614929, 0.00135848357, 0.0209948514 ],
			"children": [ 24 ]
		},
		{
			"name": "middle_01_l",
			"translation": [ 0.084740065, -0.000908262213, 0.00285304175 ],
			"children": [ 26 ]
		},
		{
			"name": "ring_01_l",
			"translation": [ 0.0812657401, -0.00128672714, -0.0154386973 ],
			"children": [ 28 ]
		},
		{
			"name": "pinky_01_l",
			"translation": [ 0.0764127374, 0.000417805015, -0.0308053959 ],
			"children": [ 30 ]
		},
		{
			"name": "thumb_02_l",
			"translation": [ 0.0219860319, -0.00172547123, 0.0249585621 ],
			"children": [ 23 ]
		},
		{
			"name": "thumb_03_l",
			"translation": [ 0.0161958355, -0.00202232203, 0.012373074 ]
		},
		{
			"name": "index_02_l",
			"translation": [ 0.027158184, 0.000453696877, -0.000951697235 ],
			"children": [ 25 ]
		},
		{
			"name": "index_03_l",
			"translation": [ 0.01787135, -0.000491539133, -0.000419796328 ]
		},
		{
			"name": "middle_02_l",
			"translation": [ 0.0278784074, 0.00247969967, -0.000356806035 ],
			"children": [ 27 ]
		},
		{
			"name": "middle_03_l",
			"translation": [ 0.0227354243, 0.000523378258, 0.00171607337 ]
		},
		{
			"name": "ring_02_l",
			"translation": [ 0.0295631997, 0.00346620055, 0.0021178301 ],
			"children": [ 29 ]
		},
		{
			"name": "ring_03_l",
			"translation": [ 0.0194584206, 0.000345967332, 0.000217258683 ]
		},
		{
			"name": "pinky_02_l",
			"translation": [ 0.0284713525, 0.00251338794, 0.0011845784 ],
			"children": [ 31 ]
		},
		{
			"name": "pinky_03_l",
			"translation": [ 0.0157895219, 0.000312742835, 0.000298393745 ]
		},
		{
			"name": "upperarm_r",
			"translation": [ -0.0390620641, -0.0140532954, 0.00874398649 ],
			"children": [ 33 ]
		},
		{
			"name": "lowerarm_r",
			"translation": [ -0.17367819, -0.0162425321, 0.0220882911 ],
			"children": [ 34 ]
		},
		{
			"name": "hand_r",
			"translation": [ -0.169982284, -0.00083954283, -0.0123503972 ],
			"children": [ 35, 36, 37, 38, 39 ]
		},
		{
			"name": "thumb_01_r",
			"translation": [ -0.0333280116, 0.0114153633, -0.0271017719 ],
			"children": [ 40 ]
		},
		{
			"name": "index_01_r",
			"translation": [ -0.0732876658, 0.00321486406, -0.0198753625 ],
			"children": [ 42 ]
		},
		{
			"name": "middle_01_r",
			"translation": [ -0.0749812424, 0.00216768053, -0.000196206223 ],
			"children": [ 44 ]
		},
		{
			"name": "ring_01_r",
			"translation": [ -0.0712214857, 0.00122650433, 0.0148341507 ],
			"children": [ 46 ]
		},
		{
			"name": "pinky_01_r",
			"translation": [ -0.0738211349, 0.00172391161, 0.0290083084 ],
			"children": [ 48 ]
		},
		{
			"name": "thumb_02_r",
			"translation": [ -0.0279235672, 0.00210469053, -0.0245977547 ],
			"children": [ 41 ]
		},
		{
			"name": "thumb_03_r",
			"translation": [ -0.0121787284, 0.000806964817, -0.0118995588 ]
		},
		{
			"name": "index_02_r",
			"translation": [ -0.0381831229, -0.00506539643, -0.000457266229 ],
			"children": [ 43 ]
		},
		{
			"name": "index_03_r",
			"translation": [ -0.0217425469, 0.000230864985, 0.00212496123 ]
		},
		{
			"name": "middle_02_r",
			"translation": [ -0.0351395607, -0.00373326521, -0.00245653209 ],
			"children": [ 45 ]
		},
		{
			"name": "middle_03_r",
			"translation": [ -0.0235634986, -0.000871951168, 0.00037072986 ]
		},
		{
			"name": "ring_02_r",
			"translation": [ -0.0390104353, -0.00313154631, -0.00163350638 ],
			"children": [ 47 ]
		},
		{
			"name": "ring_03_r",
			"translation": [ -0.0227681845, -0.000587652845, 0.000326545414 ]
		},
		{
			"name": "pinky_02_r",
			"translation": [ -0.0326522291, -0.00398028083, 0.00125201675 ],
			"children": [ 49 ]
		},
		{
			"name": "pinky_03_r",
			"translation": [ -0.014284879, -0.000388613145, -0.000899383973 ]
		},
		{
			"name": "calf_l",
			"translation": [ 0.34853521, 7.1054272e-17, -8.881784e-18 ],
			"rotation": [ 0.213606313, -0.00419491623, -0.0191814024, -0.976722479 ],
			"children": [ 51 ]
		},
		{
			"name": "foot_l",
			"translation": [ 0.458585411, 7.1054272e-17, -2.22044592e-17 ],
			"rotation": [ -0.498876065, 0.292512357, 0.412646294, 0.703762889 ],
			"children": [ 52 ]
		},
		{
			"name": "toes_l",
			"translation": [ 0.114912689, -3.10862448e-17, 1.7763568e-17 ],
			"rotation": [ -0.27715829, -0, -2.8135364e-17, 0.960824251 ]
		},
		{
			"name": "calf_r",
			"translation": [ 0.34853521, -7.1054272e-17, 2.6645352e-17 ],
			"rotation": [ -0.214349806, 0.00420951704, -0.0191782061, -0.976559699 ],
			"children": [ 54 ]
		},
		{
			"name": "foot_r",
			"translation": [ 0.458585411, 0, 1.7763568e-17 ],
			"rotation": [ 0.540130436, -0.288978964, 0.372871548, 0.696934044 ],
			"children": [ 55 ]
		},
		{
			"name": "toes_r",
			"translation": [ 0.111022264, 8.881784e-18, 0 ],
			"rotation": [ 0.942407072, -5.40171903e-17, 1.66533454e-16, 0.334468156 ]
		},
		{
			"name": "tail_01",
			"translation": [ -0.018647803, 0.118270926, -0.142004997 ],
			"rotation": [ 0.687226593, 0.0226492826, -0.724836767, 0.0426411778 ],
			"children": [ 57 ]
		},
		{
			"name": "tail_02",
			"translation": [ 0.0801740661, 4.26325632e-16, 8.881784e-18 ],
			"rotation": [ -0.750964105, 0.0166984256, -0.0146750547, -0.659968734 ],
			"children": [ 58 ]
		},
		{
			"name": "tail_03",
			"translation": [ 0.0901177898, 0, -1.7763568e-17 ],
			"rotation": [ 0.96986413, -0.0273221079, -0.00681778276, -0.242013633 ],
			"children": [ 59 ]
		},
		{
			"name": "tail_04",
			"translation": [ 0.101470754, 0, 0 ],
			"rotation": [ -0.72170043, 0.035191182, 0.0336693116, 0.690490007 ],
			"children": [ 60 ]
		},
		{
			"name": "tail_05",
			"translation": [ 0.0957975909, 8.881784e-18, 0 ],
			"rotation": [ 0.814941645, -0.0122008845, 0.00867372286, 0.579349637 ],
			"children": [ 61 ]
		},
		{
			"name": "tail_06",
			"translation": [ 0.100625955, 4.44089183e-17, 0 ],
			"rotation": [ -0.65691179, 0.033098191, 0.0379035957, 0.752286494 ],
			"children": [ 62 ]
		},
		{
			"name": "tail_07",
			"translation": [ 0.0875074044, 4.440892e-18, 1.7763568e-17 ],
			"rotation": [ 0.867969632, -0.0518575422, 0.0294560771, 0.493023425 ],
			"children": [ 63 ]
		},
		{
			"name": "tail_08",
			"translation": [ 0.0826992244, 2.70894424e-16, 0 ],
			"rotation": [ -0.997988343, -1.62370117e-15, 1.11022302e-16, 0.0633976012 ]
		},
		{
			"name": "breast_l",
			"translation": [ 0.0730514973, 0.0533413403, 0.103637703 ],
			"rotation": [ -0, -0.223048806, -0.244397268, 0.943673253 ]
		},
		{
			"name": "breast_r",
			"translation": [ -0.0891375691, 0.0474625714, 0.107373014 ],
			"rotation": [ 0.330878824, -0.697026074, 0.63613981, 2.02604838e-17 ]
		}
	],
	"samplers": [
		{
			"minFilter": 9987,
			"magFilter": 9729
		}
	],
	"scenes": [
		{
			"nodes": [ 0 ]
		}
	],
	"skins": [
		{
			"name": "Character_Tamaki",
			"inverseBindMatrices": 0,
			"skeleton": 0,
			"joints": [ 1, 2, 3, 4, 5, 6, 7, 8, 9, 10, 11, 12, 13, 14, 15, 16, 17, 18, 19, 20, 21, 22, 23, 24, 25, 26, 27, 28, 29, 30, 31, 32, 33, 34, 35, 36, 37, 38, 39, 40, 41, 42, 43, 44, 45, 46, 47, 48, 49, 50, 51, 52, 53, 54, 55, 56, 57, 58, 59, 60, 61, 62, 63, 64, 65 ]
		}
	],
	"textures": [
		{
			"name": "M_NEEEEEW_BaseColor",
			"sampler": 0,
			"source": 0
		}
	],
	"extensionsUsed": [
		"KHR_materials_specular"
	]
}